IMDb : http://www.imdb.com/title/tt1549920/

Language : English

Screens :  
http://www.piczend.com/image/1359424515_vlcsnap-2013-01-28-17h54m45s155.png 
http://www.piczend.com/image/1359424515_vlcsnap-2013-01-28-17h54m51s220.png 
http://www.piczend.com/image/1359424515_vlcsnap-2013-01-28-17h54m58s38.png 
http://www.piczend.com/image/1359424515_vlcsnap-2013-01-28-17h55m06s113.png

Info:
Format : MPEG-4
Format profile : Base Media / Version 2
Codec ID : mp42
File size : 606 MiB
Duration : 1h 38mn
Overall bit rate mode : Variable
Overall bit rate : 858 Kbps
Encoded date : UTC 2013-01-29 00:59:15
Tagged date : UTC 2013-01-29 01:13:08
Writing application : HandBrake 0.9.8 2012071700

Video
ID : 1
Format : AVC
Format/Info : Advanced Video Codec
Format profile : Main@L3.0
Format settings, CABAC : Yes
Format settings, ReFrames : 4 frames
Codec ID : avc1
Codec ID/Info : Advanced Video Coding
Duration : 1h 38mn
Bit rate mode : Variable
Bit rate : 693 Kbps
Width : 640 pixels
Height : 320 pixels
Display aspect ratio : 2.000
Frame rate mode : Constant
Frame rate : 29.970 fps
Color space : YUV
Chroma subsampling : 4:2:0
Bit depth : 8 bits
Scan type : Progressive
Bits/(Pixel*Frame) : 0.113
Stream size : 490 MiB (81%)
Writing library : x264 core 120
Encoding settings : cabac=1 / ref=1 / deblock=1:0:0 / analyse=0x1:0x111 / me=hex / subme=2 / psy=1 / psy_rd=1.00:0.00 / mixed_ref=0 / me_range=16 / chroma_me=1 / trellis=0 / 8x8dct=0 / cqm=0 / deadzone=21,11 / fast_pskip=1 / chroma_qp_offset=0 / threads=6 / sliced_threads=0 / nr=0 / decimate=1 / interlaced=0 / bluray_compat=0 / constrained_intra=0 / bframes=3 / b_pyramid=2 / b_adapt=1 / b_bias=0 / direct=1 / weightb=1 / open_gop=0 / weightp=1 / keyint=300 / keyint_min=30 / scenecut=40 / intra_refresh=0 / rc_lookahead=10 / rc=crf / mbtree=1 / crf=20.0 / qcomp=0.60 / qpmin=3 / qpmax=69 / qpstep=4 / ip_ratio=1.40 / aq=1:1.00
Encoded date : UTC 2013-01-29 00:59:15
Tagged date : UTC 2013-01-29 01:13:08
Color primaries : BT.601 NTSC
Transfer characteristics : BT.709
Matrix coefficients : BT.601

Audio
ID : 2
Format : AAC
Format/Info : Advanced Audio Codec
Format profile : LC
Codec ID : 40
Duration : 1h 38mn
Bit rate mode : Variable
Bit rate : 160 Kbps
Maximum bit rate : 254 Kbps
Channel(s) : 2 channels
Channel positions : Front: L R
Sampling rate : 44.1 KHz
Compression mode : Lossy
Delay relative to video : 67ms
Stream size : 113 MiB (19%)
Encoded date : UTC 2013-01-29 00:59:15
Tagged date : UTC 2013-01-29 01:13:08
